{"title":"Dhoom 2004 1080p BrRip x264 6CH Pimp4003","uid":9400977,"size":4244849511,"categoryP":"video","categoryS":"hd___movies","magnet":"?xt=urn:btih:e0c2f50d6dbdaecb0ccf050891b2fce227671965&amp;dn=Dhoom+2004+1080p+BrRip+x264+6CH+Pimp4003&amp;tr=udp%3A%2F%2Ftracker.openbittorrent.com%3A80&amp;tr=udp%3A%2F%2Fopen.demonii.com%3A1337&amp;tr=udp%3A%2F%2Ftracker.coppersurfer.tk%3A6969&amp;tr=udp%3A%2F%2Fexodus.desync.com%3A6969","seeders":2,"leechers":0,"uploader":"shawnmurthy","files":-1,"time":1388074421,"description":"Get all Pimp4003 newest releases first at \n\n[url]http://www.pimp4003.se[/url] OR \n\nWWW.PIMP4003.NET with VIP downloads speed\n\nRegister here and you can chat, request movies, view upcoming uploads and much more\n\nUPLOAD UNLIMITED IMAGES AND UP TO 10MB IN FILE SIZES FOR FREE....\n &lt;a href=&quot;\nhttp://www.piczhub.com&quot; rel=&quot;nofollow&quot; target=&quot;_NEW&quot;&gt;\nhttp://www.piczhub.com&lt;/a&gt;\n\n &lt;a href=&quot;\nhttp://www.piczhub.com/photos/20131204138615861113650.gif&quot; rel=&quot;nofollow&quot; target=&quot;_NEW&quot;&gt;\nhttp://www.piczhub.com/photos/20131204138615861113650.gif&lt;/a&gt; &lt;a href=&quot;\nhttp://www.piczhub.com/photos/20131204138615861100622.png&quot; rel=&quot;nofollow&quot; target=&quot;_NEW&quot;&gt;\nhttp://www.piczhub.com/photos/20131204138615861100622.png&lt;/a&gt; &lt;a href=&quot;\nhttp://www.piczhub.com/photos/20131219138744296195028.jpg&quot; rel=&quot;nofollow&quot; target=&quot;_NEW&quot;&gt;\nhttp://www.piczhub.com/photos/20131219138744296195028.jpg&lt;/a&gt; &lt;a href=&quot;\nhttp://www.piczhub.com/photos/20131226138806775115205.jpg&quot; rel=&quot;nofollow&quot; target=&quot;_NEW&quot;&gt;\nhttp://www.piczhub.com/photos/20131226138806775115205.jpg&lt;/a&gt; &lt;a href=&quot;\nhttp://www.piczhub.com/photos/20131226138806747164539.png&quot; rel=&quot;nofollow&quot; target=&quot;_NEW&quot;&gt;\nhttp://www.piczhub.com/photos/20131226138806747164539.png&lt;/a&gt; &lt;a href=&quot;\nhttp://www.piczhub.com/photos/20131226138806748125722.png&quot; rel=&quot;nofollow&quot; target=&quot;_NEW&quot;&gt;\nhttp://www.piczhub.com/photos/20131226138806748125722.png&lt;/a&gt; &lt;a href=&quot;\nhttp://www.piczhub.com/photos/20131226138806748684116.png&quot; rel=&quot;nofollow&quot; target=&quot;_NEW&quot;&gt;\nhttp://www.piczhub.com/photos/20131226138806748684116.png&lt;/a&gt; &lt;a href=&quot;\nhttp://www.piczhub.com/photos/20131226138806748159502.png&quot; rel=&quot;nofollow&quot; target=&quot;_NEW&quot;&gt;\nhttp://www.piczhub.com/photos/20131226138806748159502.png&lt;/a&gt;\n\nPIMP4003 AND PIMPRG PRESENTS\n\nDhoom 2004 1080p BrRip x264 6CH Pimp4003\n &lt;a href=&quot;\nhttp://www.imdb.com/title/tt0422091/&quot; rel=&quot;nofollow&quot; target=&quot;_NEW&quot;&gt;\nhttp://www.imdb.com/title/tt0422091/&lt;/a&gt;\n\nA gang of bikers headed by the cool-headed and arrogant Kabir is on a robbing spree in Mumbai. They rob establishments and then zip away on their superbikes. ACP Jai Dixit is the case in-charge and he recruits a bumbling bike mechanic and racer named Ali to chase the gang on a bike and help Jai nab them. Kabir accepts the challenge, and pulls off another robbery amidst a function. This causes Jai and Ali to call it off. Jai resigns from the police force and Ali goes back to his daily job. Meanwhile Kabir has lost one of his team members and recruits Ali for their final job in Goa. The action shifts from the congested Mumbai traffic to the sunny Goa for the final showdown between cops and robbers.\n\nGenre: ACTION | Comedy\nFile Size: 3.96GB\nSource: EVIL-DEAD\nLanguage: HINDI\n\nVideo\nID                                       : 2\nFormat                                   : AVC\nFormat/Info                              : Advanced Video Codec\nFormat profile                           : &lt;a class=&quot;__cf_email__&quot; href=&quot;/cdn-cgi/l/email-protection&quot; data-cfemail=&quot;7436150711181d1a113438415a44&quot;&gt;[email&amp;#160;protected]&lt;/a&gt;&lt;script cf-hash='f9e31' type=&quot;text/javascript&quot;&gt;\n/* &lt;![CDATA[ */!function(){try{var t=&quot;currentScript&quot;in document?document.currentScript:function(){for(var t=document.getElementsByTagName(&quot;script&quot;),e=t.length;e--;)if(t[e].getAttribute(&quot;cf-hash&quot;))return t[e]}();if(t&amp;&amp;t.previousSibling){var e,r,n,i,c=t.previousSibling,a=c.getAttribute(&quot;data-cfemail&quot;);if(a){for(e=&quot;&quot;,r=parseInt(a.substr(0,2),16),n=2;a.length-n;n+=2)i=parseInt(a.substr(n,2),16)^r,e+=String.fromCharCode(i);e=document.createTextNode(e),c.parentNode.replaceChild(e,c)}}}catch(u){}}();/* ]]&gt; */&lt;/script&gt;\nFormat settings, CABAC                   : No\nFormat settings, ReFrames                : 1 frame\nFormat settings, GOP                     : M=1, N=25\nMuxing mode                              : Container profile=&lt;a class=&quot;__cf_email__&quot; href=&quot;/cdn-cgi/l/email-protection&quot; data-cfemail=&quot;e3a18290868f8a8d86a3d7cdd2&quot;&gt;[email&amp;#160;protected]&lt;/a&gt;&lt;script cf-hash='f9e31' type=&quot;text/javascript&quot;&gt;\n/* &lt;![CDATA[ */!function(){try{var t=&quot;currentScript&quot;in document?document.currentScript:function(){for(var t=document.getElementsByTagName(&quot;script&quot;),e=t.length;e--;)if(t[e].getAttribute(&quot;cf-hash&quot;))return t[e]}();if(t&amp;&amp;t.previousSibling){var e,r,n,i,c=t.previousSibling,a=c.getAttribute(&quot;data-cfemail&quot;);if(a){for(e=&quot;&quot;,r=parseInt(a.substr(0,2),16),n=2;a.length-n;n+=2)i=parseInt(a.substr(n,2),16)^r,e+=String.fromCharCode(i);e=document.createTextNode(e),c.parentNode.replaceChild(e,c)}}}catch(u){}}();/* ]]&gt; */&lt;/script&gt;\nCodec ID                                 : avc1\nCodec ID/Info                            : Advanced Video Coding\nDuration                                 : 2h 9mn\nBit rate                                 : 4 187 Kbps\nWidth                                    : 1 920 pixels\nHeight                                   : 1 080 pixels\nDisplay aspect ratio                     : 16:9\nFrame rate mode                          : Constant\nFrame rate                               : 23.976 fps\nOriginal frame rate                      : 23.000 fps\nColor space                              : YUV\nChroma subsampling                       : 4:2:0\nBit depth                                : 8 bits\nScan type                                : Progressive\nBits/(Pixel*Frame)                       : 0.084\nStream size                              : 3.78 GiB (96%)\nWriting library                          : Ã„\nLanguage                                 : HINDI\n\nAudio\nID                                       : 1\nFormat                                   : AAC\nFormat/Info                              : Advanced Audio Codec\nFormat profile                           : LC\nCodec ID                                 : 40\nDuration                                 : 2h 9mn\nBit rate mode                            : Variable\nBit rate                                 : 192 Kbps\nMaximum bit rate                         : 243 Kbps\nChannel(s)                               : 6 channels\nChannel positions                        : Front: L C R, Side: L R, LFE\nSampling rate                            : 48.0 KHz\nCompression mode                         : Lossy\nStream size                              : 178 MiB (4%)\nLanguage                                 : HINDI\n\n\nALWAYS ON SEED BOX\n\nGREETZ TO PIMPRG AND ALL OTHER GROUPS\n\nPimp4003 | SUJAIDR | PIMPRG | JUNAIDZIA | RICKYKT | LOKKIODDIN | SCENEDL | Ali1997 | AND ALL OTHER P2P AND SCENE GROUPS\n","torrent":{"xt":"urn:btih:e0c2f50d6dbdaecb0ccf050891b2fce227671965","amp;dn":"Dhoom+2004+1080p+BrRip+x264+6CH+Pimp4003","amp;tr":["udp%3A%2F%2Ftracker.openbittorrent.com%3A80","udp%3A%2F%2Fopen.demonii.com%3A1337","udp%3A%2F%2Ftracker.coppersurfer.tk%3A6969","udp%3A%2F%2Fexodus.desync.com%3A6969"],"infoHash":"e0c2f50d6dbdaecb0ccf050891b2fce227671965","infoHashBuffer":{"type":"Buffer","data":[224,194,245,13,109,189,174,203,12,207,5,8,145,178,252,226,39,103,25,101]},"announce":[],"urlList":[]}}